<svg xmlns="http://www.w3.org/2000/svg" viewBox="0 0 400 400" width="400" height="400">
  <rect width="400" height="400" fill="#05070c" rx="40"/>
  <g fill="#2dd4bf">
    <!-- Outer ring (radius 130, stroke 18 → outer edge at 139, inner at 121) -->
    <circle cx="200" cy="200" r="130" fill="none" stroke="#2dd4bf" stroke-width="18"/>

    <!-- 8 square pedestals (28×28, rx=2) — all overlapping ring by 2px -->
    <!-- Cardinal squares: inner edge at radius 141 (ring outer 139 + 2px overlap) -->
    
    <!-- Top — center y = 200 - 141 - 14 = 45 -->
    <rect x="186" y="31" width="28" height="28" rx="2"/>
    <circle cx="200" cy="45" r="6"/>

    <!-- Right — center x = 200 + 141 + 14 = 355 -->
    <rect x="341" y="186" width="28" height="28" rx="2"/>
    <circle cx="355" cy="200" r="6"/>

    <!-- Bottom — center y = 200 + 141 + 14 = 355 -->
    <rect x="186" y="341" width="28" height="28" rx="2"/>
    <circle cx="200" cy="355" r="6"/>

    <!-- Left — center x = 200 - 141 - 14 = 45 -->
    <rect x="31" y="186" width="28" height="28" rx="2"/>
    <circle cx="45" cy="200" r="6"/>

    <!-- Diagonal squares: after 45° rotation, nearest corner overlaps ring at 137.
         Square center at distance 150.5 from gear center. -->
    
    <!-- Upper-right — center: 200+106=306, 200-106=94 -->
    <rect x="292" y="80" width="28" height="28" rx="2" transform="rotate(45 306 94)"/>
    <circle cx="306" cy="94" r="6"/>

    <!-- Lower-right — center: 200+106=306, 200+106=306 -->
    <rect x="292" y="292" width="28" height="28" rx="2" transform="rotate(-45 306 306)"/>
    <circle cx="306" cy="306" r="6"/>

    <!-- Lower-left — center: 200-106=94, 200+106=306 -->
    <rect x="80" y="292" width="28" height="28" rx="2" transform="rotate(45 94 306)"/>
    <circle cx="94" cy="306" r="6"/>

    <!-- Upper-left — center: 200-106=94, 200-106=94 -->
    <rect x="80" y="80" width="28" height="28" rx="2" transform="rotate(-45 94 94)"/>
    <circle cx="94" cy="94" r="6"/>

    <!-- 8 spokes from center to inner ring edge (r=121) -->
    <line x1="200" y1="79" x2="200" y2="200" stroke="#2dd4bf" stroke-width="12"/>
    <line x1="79" y1="200" x2="200" y2="200" stroke="#2dd4bf" stroke-width="12"/>
    <line x1="200" y1="321" x2="200" y2="200" stroke="#2dd4bf" stroke-width="12"/>
    <line x1="321" y1="200" x2="200" y2="200" stroke="#2dd4bf" stroke-width="12"/>
    <line x1="286" y1="114" x2="200" y2="200" stroke="#2dd4bf" stroke-width="12"/>
    <line x1="286" y1="286" x2="200" y2="200" stroke="#2dd4bf" stroke-width="12"/>
    <line x1="114" y1="286" x2="200" y2="200" stroke="#2dd4bf" stroke-width="12"/>
    <line x1="114" y1="114" x2="200" y2="200" stroke="#2dd4bf" stroke-width="12"/>

    <!-- Central hub -->
    <circle cx="200" cy="200" r="24"/>
  </g>
</svg>
