<svg xmlns="http://www.w3.org/2000/svg" viewBox="0 0 400 400" width="400" height="400">
  <!-- Background -->
  <rect width="400" height="400" fill="#05070c" rx="40"/>
  
  <g fill="#2dd4bf">
    <!-- Outer ring -->
    <circle cx="200" cy="200" r="130" fill="none" stroke="#2dd4bf" stroke-width="18"/>
    
    <!-- 8 square pedestals with centered circles -->
    <!-- Top (0°) -->
    <rect x="186" y="42" width="28" height="28" rx="5"/>
    <circle cx="200" cy="56" r="10"/>
    
    <!-- Upper-right (45°) -->
    <rect x="271" y="57" width="28" height="28" rx="5" transform="rotate(45, 285, 71)"/>
    <circle cx="298" cy="56" r="10"/>
    
    <!-- Right (90°) -->
    <rect x="330" y="186" width="28" height="28" rx="5"/>
    <circle cx="344" cy="200" r="10"/>
    
    <!-- Lower-right (135°) -->
    <rect x="271" y="315" width="28" height="28" rx="5" transform="rotate(-45, 285, 329)"/>
    <circle cx="298" cy="344" r="10"/>
    
    <!-- Bottom (180°) -->
    <rect x="186" y="330" width="28" height="28" rx="5"/>
    <circle cx="200" cy="344" r="10"/>
    
    <!-- Lower-left (225°) -->
    <rect x="101" y="315" width="28" height="28" rx="5" transform="rotate(45, 115, 329)"/>
    <circle cx="102" cy="344" r="10"/>
    
    <!-- Left (270°) -->
    <rect x="42" y="186" width="28" height="28" rx="5"/>
    <circle cx="56" cy="200" r="10"/>
    
    <!-- Upper-left (315°) -->
    <rect x="101" y="57" width="28" height="28" rx="5" transform="rotate(-45, 115, 71)"/>
    <circle cx="102" cy="56" r="10"/>
    
    <!-- 8 spokes from center to outer ring -->
    <line x1="200" y1="87" x2="200" y2="200" stroke="#2dd4bf" stroke-width="12"/>
    <line x1="108" y1="200" x2="200" y2="200" stroke="#2dd4bf" stroke-width="12"/>
    <line x1="200" y1="313" x2="200" y2="200" stroke="#2dd4bf" stroke-width="12"/>
    <line x1="292" y1="200" x2="200" y2="200" stroke="#2dd4bf" stroke-width="12"/>
    <line x1="135" y1="135" x2="200" y2="200" stroke="#2dd4bf" stroke-width="12"/>
    <line x1="265" y1="135" x2="200" y2="200" stroke="#2dd4bf" stroke-width="12"/>
    <line x1="135" y1="265" x2="200" y2="200" stroke="#2dd4bf" stroke-width="12"/>
    <line x1="265" y1="265" x2="200" y2="200" stroke="#2dd4bf" stroke-width="12"/>
    
    <!-- Central hub -->
    <circle cx="200" cy="200" r="24"/>
  </g>
</svg>
